<svg xmlns="http://www.w3.org/2000/svg" viewBox="0 0 72.22 103.33" fill="currentColor">
  <path d="M 60.9140650332,13.1980751546 C 55.5039090332,7.79182515457 45.7421900332,5.47151215457 31.0976590332,6.10041815457 C 23.4960960332,6.24494915457 13.8046900332,9.38557515457 9.25000203316,16.0457311546 C 4.02734603316,23.6668251546 5.16797103316,34.3699491546 12.1757830332,43.3933871546 L 10.8320330332,44.7371371546 C 10.5585960332,45.0105751546 10.4101590332,45.3543251546 10.4101590332,45.7332311546 C 10.4101590332,46.1160431546 10.5585960332,46.4597931546 10.8320330332,46.7527621546 C 11.7539090332,47.5652621546 12.6445330332,48.5183871546 13.8242210332,49.9832311546 C 6.27344003316,57.2761991546 3.97265903316,68.6707311546 8.07031503316,78.4558871546 C 9.97656503316,82.9519811546 13.4218770332,86.9832311546 17.9609400332,90.0691681546 C 23.0234400332,94.6746371546 31.7539090332,96.3113561546 36.4882830332,96.8738561546 C 38.6679710332,97.1668251546 40.8593770332,97.3269811546 43.0546900332,97.3269811546 C 49.2226590332,97.3269811546 55.3750020332,96.1707311546 60.9140650332,93.9168251546 C 61.9453150332,93.4636991546 63.0351590332,92.8660431546 63.1992210332,91.7058871546 C 63.3945330332,90.1238561546 61.6054710332,89.2215121546 61.0546900332,88.9832311546 C 59.6015650332,88.3347931546 58.0078150332,88.1824491546 56.7187520332,88.2058871546 C 66.0703150332,78.7683871546 69.2226590332,61.6238561546 59.0937520332,50.2801061546 C 60.0781270332,48.8621371546 61.1093770332,46.0886991546 61.2382830332,45.1121371546 L 61.2382830332,44.3113561546 C 61.0937520332,43.9285431546 60.7851590332,43.6043251546 60.3710960332,43.4011991546 C 60.4375020332,43.2722931546 60.5312520332,43.1316681546 60.6210960332,42.9676061546 C 69.9492210332,27.4871371546 65.8984400332,18.2332311546 60.8593770332,13.2097931546 L 60.9140650332,13.2097931546 Z M 21.0468770332,23.9246371546 C 22.8242210332,19.7722931546 26.7070330332,17.3894811546 31.6796900332,17.3894811546 L 33.0429710332,17.3894811546 C 38.3398460332,17.3582311546 49.3710960332,17.2840121546 52.6015650332,20.6590121546 C 56.3593770332,24.8347931546 53.0039090332,31.8426061546 50.0429710332,36.8621371546 C 49.4804710332,36.6238561546 48.8984400332,36.3933871546 48.2812520332,37.0222931546 C 47.1953150332,37.9676061546 46.1210960332,39.2918251546 44.8671900332,40.9597931546 C 37.0117210332,38.8894811546 32.0585960332,38.5105751546 28.8828150332,38.5105751546 C 27.8125020332,38.5105751546 26.9453150332,38.5457311546 26.2187520332,38.5847931546 C 25.5820330332,38.6199491546 25.0703150332,38.6394811546 24.6562520332,38.6199491546 C 20.3242210332,34.9676061546 18.8281270332,28.9441681546 21.0468770332,23.9168251546 Z M 55.5273460332,40.5301061546 C 54.5234400332,39.6629181546 53.4921900332,38.7761991546 52.2890650332,38.0066681546 C 55.6328150332,32.3074491546 59.3164090332,24.2371371546 54.1953150332,18.6863561546 C 50.2070330332,14.4207311546 38.7343770332,14.4949491546 32.6015650332,14.5144811546 L 31.2578150332,14.5144811546 C 24.3437520332,14.5144811546 19.0117210332,17.0183871546 16.2734400332,21.5340121546 C 13.2382830332,26.5105751546 14.0937520332,33.3269811546 18.2890650332,37.9051061546 C 16.6914090332,38.9246371546 15.1875020332,40.0496371546 13.7890650332,41.2761991546 C 7.99609603316,33.3660431546 7.07422103316,24.0730751546 11.4843770332,17.5418251546 C 15.4179710332,11.8269811546 24.2578150332,8.99104315457 31.2773460332,8.70588715457 C 45.0703150332,8.05744915457 54.1093770332,10.1394811546 58.9296900332,15.0574491546 C 65.6132830332,21.7332311546 62.9257830332,33.8543251546 56.5898460332,41.4207311546 C 56.2304710332,41.1277621546 55.8867210332,40.8230751546 55.5390650332,40.5105751546 Z M 15.8398460332,51.8699491546 C 16.0000020332,51.8699491546 16.1992210332,51.8699491546 16.5429710332,51.6863561546 C 18.7773460332,50.5574491546 20.6601590332,48.8894811546 21.9921900332,46.8074491546 C 22.1679710332,46.5340121546 22.2226590332,46.1707311546 22.1523460332,45.8113561546 C 22.0781270332,45.4441681546 21.8828150332,45.1394811546 21.6132830332,44.9558871546 C 21.0468770332,44.5730751546 20.1406270332,44.7566681546 19.7578150332,45.3230751546 C 18.9375020332,46.4832311546 17.8515650332,47.5535431546 16.4335960332,48.5691681546 C 15.5664090332,47.4636991546 14.6914090332,46.4676061546 13.7500020332,45.5027621546 C 15.9140650332,43.3465121546 18.3398460332,40.9676061546 21.0468770332,39.6082311546 C 21.8945330332,40.8113561546 23.1171900332,41.8933871546 24.2929710332,42.9324491546 C 24.6796900332,43.3113561546 25.0585960332,43.3113561546 25.4375020332,43.2996371546 C 32.0390650332,41.8816681546 39.5000020332,42.0457311546 44.8867210332,43.7136991546 C 45.4531270332,43.9090121546 46.0351590332,43.6941681546 46.3750020332,43.1824491546 C 47.6640650332,41.4832311546 48.5390650332,40.3543251546 49.4257830332,39.4480751546 C 51.0078150332,40.0965121546 52.5117210332,41.4285431546 54.1093770332,42.8035431546 C 55.1914090332,43.7488561546 56.3203150332,44.7449491546 57.4804710332,45.4910431546 C 57.2500020332,46.0183871546 56.9375020332,46.7605751546 56.2851590332,48.3933871546 C 54.1406270332,48.1902621546 51.9296900332,47.0496371546 50.5546900332,45.4168251546 C 49.9687520332,44.8308871546 49.2226590332,44.7644811546 48.5507830332,45.2722931546 C 47.9765650332,45.8582311546 47.8984400332,46.5965121546 48.3906270332,47.2566681546 C 50.2968770332,49.6160431546 53.1640650332,51.1004181546 56.0468770332,51.2840121546 C 62.3085960332,58.8894811546 63.5585960332,68.6121371546 59.4062520332,77.3230751546 C 54.9101590332,86.7605751546 45.3984400332,92.5457311546 34.6171900332,92.4168251546 C 24.3671900332,92.2761991546 14.5156270332,86.0144811546 10.6679710332,77.1941681546 C 6.94531503316,68.9363561546 9.08984603316,58.5379181546 15.8398460332,51.8621371546 L 15.8398460332,51.8816681546 Z M 15.8398460332,51.8699491546"/>
</svg>
