<svg xmlns="http://www.w3.org/2000/svg" viewBox="0 0 104.32 100.90" fill="currentColor">
  <path d="M 84.2293226019,29.0078541739 C 84.5379156019,29.0078541739 84.8465096019,28.8984791739 85.1394786019,28.6797291739 C 87.0457286019,27.1211351739 89.2918226019,25.6680101739 92.3582286019,23.9453541739 C 93.0652596019,23.5859791739 93.2996346019,22.8594161739 92.9207286019,22.1133221739 C 92.5418226019,21.3672291739 91.7801036019,21.0625411739 91.0886966019,21.4062911739 C 88.1668226019,22.9492601739 85.5535406019,24.6562911739 83.3074466019,26.5078541739 C 82.7254156019,27.0937911739 82.6551036019,27.8320721739 83.1668226019,28.5039481739 C 83.4910406019,28.8281661739 83.8582286019,28.9922291739 84.2371346019,28.9922291739 L 84.2371346019,29.0117601739 Z M 84.2293226019,29.0078541739"/>
  <path d="M 85.7371346019,34.9414481739 C 85.5926036019,35.1797291739 85.5418226019,35.4726981739 85.5926036019,35.7578541739 C 85.6160406019,36.5156661739 86.3543226019,37.0234791739 87.0652596019,37.0234791739 L 96.2879156019,36.1914481739 C 97.0652596019,36.1914481739 97.5965096019,35.4453541739 97.5965096019,34.7383221739 C 97.5965096019,33.9570721739 96.8504156019,33.4297291739 96.1238536019,33.4297291739 L 86.8308846019,34.2851981739 C 86.3191656019,34.3906661739 85.9402596019,34.6289481739 85.7215096019,34.9336351739 L 85.7449466019,34.9336351739 Z M 85.7371346019,34.9414481739"/>
  <path d="M 88.8035406019,43.8164481739 C 88.0965096019,43.6328541739 87.3855726019,44.0000411739 87.0066656019,44.7578541739 C 86.8230726019,45.4648851739 87.1668226019,46.1758221739 87.9129156019,46.5351981739 C 96.0965096019,49.2226981739 96.6238536019,49.3516041739 96.9324466019,49.3516041739 C 97.5144786019,49.3516041739 98.0769786019,48.9844161739 98.2722906019,48.4101981739 C 98.4558846019,47.6641041739 98.0574466019,46.9375411739 97.3504156019,46.7617601739 L 88.7879156019,43.8242601739 L 88.8113536019,43.8242601739 Z M 88.8035406019,43.8164481739"/>
  <path d="M 37.7996346019,43.8281661739 C 38.0183846019,44.1367601739 38.3972906019,44.3164481739 38.8191656019,44.3164481739 L 39.1785406019,44.3164481739 C 39.5222906019,44.2305101739 39.8504156019,44.0117601739 40.0457286019,43.6992601739 C 40.2644786019,43.3750411739 40.3386966019,43.0078541739 40.2410406019,42.6484791739 C 39.4402596019,39.4414481739 39.2644786019,36.1367601739 39.6785406019,32.5820721739 C 39.7683846019,32.2226981739 39.6785406019,31.8203541739 39.4402596019,31.5312911739 C 39.2058846019,31.2383221739 38.8777596019,31.0742601739 38.5886966019,31.0742601739 C 38.2058846019,30.9883221739 37.8269786019,31.0742601739 37.5144786019,31.3125411739 C 37.2215096019,31.5508221739 37.0613536019,31.8750411739 37.0613536019,32.2031661739 C 36.6277596019,36.0156661739 36.8113536019,39.8086351739 37.6043226019,43.1641041739 C 37.5496346019,43.4023851739 37.6043226019,43.6406661739 37.7644786019,43.8555101739 L 37.7879156019,43.8359791739 Z M 37.7996346019,43.8281661739"/>
  <path d="M 39.1785406019,47.0234791739 C 38.9246346019,47.3281661739 38.8308846019,47.7500411739 38.9402596019,48.1289481739 L 39.5027596019,50.2539481739 C 39.6863536019,50.7812911739 40.2097906019,51.3047291739 40.7918226019,51.3047291739 L 41.1511966019,51.3047291739 C 41.8582286019,51.1211351739 42.2761966019,50.3945721739 42.0730726019,49.6367601739 L 41.5105726019,47.5312911739 C 41.4207286019,47.1719161739 41.2058846019,46.8828541739 40.8738536019,46.7187911739 C 40.5691656019,46.5547291739 40.2019786019,46.5234791739 39.9285406019,46.5898851739 C 39.6394786019,46.5898851739 39.3660406019,46.7344161739 39.1511966019,47.0117601739 L 39.1707286019,47.0312911739 Z M 39.1785406019,47.0234791739"/>
  <path d="M 12.7722906019,64.1875411739 C 16.0574466019,66.7109791739 20.0847906019,67.6914481739 24.4207286019,67.0195721739 C 28.0691656019,66.4766041739 28.7566656019,66.8203541739 30.1004156019,69.7773851739 C 31.5730726019,73.0078541739 32.8191656019,75.8359791739 33.9129156019,78.3476981739 C 38.4519786019,88.7461351739 40.3152596019,93.0508221739 45.8504156019,94.2109791739 C 47.1199466019,94.6992601739 48.3894786019,94.9023851739 49.6121346019,94.9023851739 C 53.1316656019,94.9023851739 56.3816656019,93.2305101739 58.7371346019,91.8008221739 C 60.0027596019,91.0742601739 60.8777596019,90.3281661739 61.4949466019,89.4609791739 C 62.3855726019,88.2266041739 62.6551036019,86.9023851739 62.2410406019,85.9375411739 C 61.8621346019,84.9609791739 61.0808846019,84.2891041739 60.3347906019,83.6328541739 C 59.6121346019,83.0156661739 58.9168226019,82.4180101739 58.6121346019,81.5976981739 C 58.4285406019,81.0547291739 58.4168226019,80.4726981739 58.4168226019,79.8945721739 C 58.4168226019,79.1680101739 58.3816656019,78.4414481739 58.0574466019,77.7695721739 C 57.7527596019,77.0781661739 57.1472906019,76.5547291739 56.5730726019,76.0469161739 C 56.0301036019,75.5742601739 55.4988536019,75.1250411739 55.2488536019,74.5430101739 C 54.8894786019,73.7266041739 54.9754156019,72.8203541739 55.0652596019,71.9297291739 C 55.1004156019,71.5508221739 55.1394786019,71.1289481739 55.1394786019,70.7500411739 C 55.1394786019,69.4062911739 54.2840096019,68.2461351739 53.3816656019,67.1758221739 C 53.0574466019,66.7930101739 52.6902596019,66.4297291739 52.3308846019,66.0898851739 C 51.7488536019,65.5273851739 51.1511966019,64.9414481739 50.7488536019,64.2773851739 C 50.3152596019,63.5703541739 50.1121346019,62.6641041739 50.2215096019,62.0234791739 C 50.3504156019,61.6250411739 50.5886966019,60.8242601739 50.7293226019,60.1601981739 C 61.8699466019,60.9062911739 68.7840096019,63.0273851739 72.1082286019,64.0391041739 C 73.3972906019,64.4414481739 74.0144786019,64.6250411739 74.3738536019,64.6250411739 C 77.6902596019,66.0430101739 81.3386966019,64.3516041739 83.2683846019,60.5273851739 C 84.4051036019,58.2383221739 84.5574466019,55.5312911739 84.5574466019,52.9609791739 C 84.5574466019,40.7148851739 81.4910406019,28.1172291739 75.6824466019,16.5039481739 C 73.8308846019,12.7851981739 71.6941656019,9.02738517391 67.6980726019,7.39066617391 C 66.1355726019,6.26566617391 64.6121346019,5.81254117391 63.1980726019,6.07035417391 C 61.9324466019,6.28519817391 60.8035406019,7.08597917391 59.9168226019,8.37504117391 C 59.8074466019,8.42972917391 59.7176036019,8.51957217391 59.6785406019,8.64847917391 C 48.2488536019,21.0430101739 40.4246346019,25.7226981739 24.0730726019,34.1094161739 C 19.3738536019,32.2773851739 13.8933846019,33.5430101739 10.4129156019,37.3164481739 C 7.14729060186,40.7305101739 5.54572860186,46.0078541739 6.11213460186,51.4531661739 C 6.65119660186,56.7187911739 9.08869660186,61.3594161739 12.7722906019,64.1953541739 L 12.7918226019,64.2148851739 Z M 67.9363536019,31.5508221739 C 69.9715096019,33.3086351739 71.0222906019,37.4101981739 70.1121346019,40.1328541739 C 68.3699466019,37.8125411739 67.5535406019,34.6172291739 67.9363536019,31.5508221739 Z M 61.4558846019,31.6719161739 C 62.8191656019,31.0898851739 64.1238536019,30.5469161739 65.4871346019,30.4570721739 C 64.6511966019,34.7266041739 65.7566656019,39.0742601739 68.4793226019,42.2344161739 C 67.1902596019,42.9609791739 65.5183846019,43.1797291739 64.5769786019,43.3086351739 C 64.4676036019,43.3086351739 64.3816656019,43.3398851739 64.2840096019,43.3398851739 C 62.9402596019,39.4062911739 61.9636966019,35.7031661739 61.2176036019,31.7656661739 L 61.4676036019,31.6601981739 L 61.4480726019,31.6797291739 Z M 72.0183846019,42.6367601739 C 73.9597906019,39.7305101739 73.1785406019,36.1211351739 72.9090096019,35.0859791739 C 71.5847906019,29.6562911739 68.2801036019,27.0664481739 63.8386966019,27.9766041739 C 62.7527596019,28.2109791739 61.7136966019,28.5703541739 60.6629156019,29.0586351739 C 58.8855726019,17.3711351739 60.7176036019,9.67972917391 63.4910406019,8.97269817391 C 63.6199466019,8.97269817391 63.7410406019,8.93754117391 63.8699466019,8.88285417391 C 63.9246346019,8.86332217391 64.0144786019,8.82816617391 64.0535406019,8.82816617391 C 65.2019786019,8.82816617391 66.5027596019,9.58988517391 67.9207286019,11.1172291739 C 74.4324466019,18.0508221739 81.6043226019,38.9531661739 80.6941656019,53.4844161739 C 80.4441656019,57.8203541739 79.3191656019,61.1562911739 77.8269786019,62.0312911739 C 77.1902596019,62.1601981739 76.4285406019,62.1601981739 75.7918226019,62.0312911739 C 71.4676036019,60.3086351739 67.0613536019,51.0351981739 65.2136966019,46.0625411739 C 67.9754156019,45.6055101739 70.5457286019,44.9336351739 72.0535406019,42.6133221739 Z M 23.5340096019,56.4805101739 C 23.7488536019,56.9180101739 24.3308846019,57.0781661739 24.6590096019,57.0781661739 C 25.1863536019,57.0781661739 25.6746346019,56.7734791739 25.9129156019,56.2773851739 C 26.1511966019,55.8047291739 26.0769786019,55.2812911739 25.7488536019,54.8594161739 C 23.8230726019,52.3906661739 22.7371346019,49.1953541739 22.7371346019,46.0742601739 C 22.6082286019,42.3164481739 23.2488536019,39.5234791739 24.7527596019,37.3437911739 C 24.9168226019,37.1797291739 24.9715096019,36.9453541739 24.9910406019,36.7617601739 C 38.5105726019,29.8672291739 47.5613536019,24.8555101739 57.5418226019,14.8203541739 C 56.5769786019,21.0273851739 57.3972906019,30.2070721739 59.6863536019,38.6133221739 C 60.6082286019,42.0586351739 64.0066656019,53.5312911739 69.6316656019,60.6601981739 C 56.2371346019,57.0859791739 41.9597906019,56.3398851739 28.2605726019,58.5391041739 C 27.9129156019,58.6250411739 27.5886966019,58.8437911739 27.3933846019,59.1328541739 C 27.1746346019,59.4609791739 27.1004156019,59.8281661739 27.1941656019,60.1875411739 C 27.2840096019,60.5312911739 27.5027596019,60.8594161739 27.7918226019,61.0547291739 C 28.1199466019,61.2734791739 28.4832286019,61.3476981739 28.8113536019,61.2734791739 C 35.0301036019,60.2734791739 41.1082286019,59.8945721739 46.9051036019,60.1445721739 C 46.6316656019,63.2305101739 48.0105726019,67.0391041739 50.4051036019,69.8555101739 C 49.5691656019,70.3437911739 48.8777596019,70.8164481739 48.2254156019,71.3594161739 C 47.8660406019,71.1094161739 47.4246346019,70.7226981739 47.0886966019,70.4180101739 C 46.7254156019,70.1133221739 46.5027596019,69.9297291739 46.3621346019,69.8203541739 C 45.5613536019,68.8984791739 45.2136966019,67.8789481739 45.3426036019,66.9180101739 C 45.4324466019,66.5508221739 45.3426036019,66.1914481739 45.1472906019,65.8633221739 C 44.9480726019,65.5742601739 44.6160406019,65.3555101739 44.2801036019,65.2695721739 C 43.5730726019,65.1055101739 42.8074466019,65.5742601739 42.6277596019,66.3516041739 C 42.2097906019,68.1836351739 42.7058846019,69.8398851739 44.2449466019,71.6836351739 C 44.2996346019,71.7383221739 45.5886966019,73.1562911739 46.9636966019,73.8984791739 C 46.8894786019,77.2226981739 48.4363536019,80.7031661739 51.0066656019,83.0781661739 C 50.6629156019,85.8906661739 52.1121346019,88.8828541739 53.7488536019,90.6953541739 C 49.9558846019,92.3086351739 46.9793226019,92.5273851739 44.6238536019,91.3672291739 C 42.0457286019,90.0781661739 40.5261966019,87.4336351739 39.0340096019,83.8164481739 C 37.9832286019,81.3672291739 37.0926036019,79.2617601739 36.3152596019,77.4453541739 C 31.7058846019,66.6641041739 31.4363536019,66.0156661739 29.6707286019,64.8867601739 C 28.7488536019,64.3242601739 27.7097906019,64.1406661739 26.6785406019,64.1406661739 C 25.8269786019,64.1406661739 24.9754156019,64.2500411739 24.1551036019,64.3789481739 C 23.6121346019,64.4531661739 23.1043226019,64.5195721739 22.5965096019,64.5625411739 C 19.6394786019,64.8672291739 16.6472906019,63.9258221739 14.1551036019,61.8945721739 C 11.1121346019,59.4141041739 9.20588460186,55.6328541739 8.78400960186,51.2461351739 C 8.24104060186,46.6719161739 9.58479060186,42.2070721739 12.3386966019,39.3047291739 C 14.9519786019,36.5625411739 18.8386966019,35.4570721739 22.1355726019,36.4570721739 C 19.1980726019,41.3945721739 18.9246346019,50.2812911739 23.6082286019,56.4687911739 L 23.5535406019,56.4492601739 Z M 52.7097906019,80.2891041739 C 50.7488536019,78.3476981739 49.6980726019,75.7891041739 49.7879156019,73.1797291739 C 50.2761966019,72.7969161739 50.7840096019,72.4726981739 51.2918226019,72.1601981739 C 51.5301036019,74.7539481739 52.5261966019,77.2617601739 54.0691656019,79.1484791739 L 52.7058846019,80.2891041739 Z M 53.8386966019,82.8437911739 L 54.9090096019,81.8672291739 C 55.7644786019,84.5547291739 58.1043226019,86.6055101739 58.3543226019,86.8203541739 C 58.4285406019,86.8945721739 58.4636966019,86.9844161739 58.4636966019,87.0937911739 C 58.4636966019,87.1992601739 58.4285406019,87.2773851739 58.3230726019,87.3828541739 C 58.0144786019,87.7851981739 57.3465096019,88.2187911739 56.6746346019,88.6523851739 C 56.5652596019,88.7266041739 56.4754156019,88.7812911739 56.3660406019,88.8476981739 C 54.8816656019,87.6133221739 53.4988536019,84.8750411739 53.8308846019,82.8437911739 L 53.8504156019,82.8437911739 Z M 53.8386966019,82.8437911739"/>
</svg>
